<svg width="178" height="32" viewBox="0 0 178 32" fill="none" xmlns="http://www.w3.org/2000/svg">
<path d="M24.9016 16.1172V17.4648C24.9016 19.6263 24.6086 21.5664 24.0227 23.2852C23.4367 25.0039 22.6099 26.4688 21.5422 27.6797C20.4745 28.8776 19.1984 29.7956 17.7141 30.4336C16.2427 31.0716 14.6086 31.3906 12.8117 31.3906C11.0279 31.3906 9.39375 31.0716 7.90938 30.4336C6.43802 29.7956 5.16198 28.8776 4.08125 27.6797C3.00052 26.4688 2.16068 25.0039 1.56172 23.2852C0.975784 21.5664 0.682816 19.6263 0.682816 17.4648V16.1172C0.682816 13.9427 0.975784 12.0026 1.56172 10.2969C2.14766 8.57812 2.97448 7.11328 4.04219 5.90234C5.12292 4.69141 6.39896 3.76693 7.87032 3.12891C9.35469 2.49089 10.9888 2.17188 12.7727 2.17188C14.5695 2.17188 16.2036 2.49089 17.675 3.12891C19.1594 3.76693 20.4354 4.69141 21.5031 5.90234C22.5839 7.11328 23.4172 8.57812 24.0031 10.2969C24.6021 12.0026 24.9016 13.9427 24.9016 16.1172ZM18.9836 17.4648V16.0781C18.9836 14.5677 18.8469 13.2396 18.5734 12.0938C18.3 10.9479 17.8964 9.98438 17.3625 9.20312C16.8286 8.42188 16.1776 7.83594 15.4094 7.44531C14.6411 7.04167 13.7622 6.83984 12.7727 6.83984C11.7831 6.83984 10.9042 7.04167 10.1359 7.44531C9.38073 7.83594 8.7362 8.42188 8.20235 9.20312C7.68151 9.98438 7.28438 10.9479 7.01094 12.0938C6.7375 13.2396 6.60078 14.5677 6.60078 16.0781V17.4648C6.60078 18.9622 6.7375 20.2904 7.01094 21.4492C7.28438 22.5951 7.68802 23.5651 8.22188 24.3594C8.75573 25.1406 9.40677 25.7331 10.175 26.1367C10.9432 26.5404 11.8221 26.7422 12.8117 26.7422C13.8013 26.7422 14.6802 26.5404 15.4484 26.1367C16.2167 25.7331 16.8612 25.1406 17.382 24.3594C17.9029 23.5651 18.3 22.5951 18.5734 21.4492C18.8469 20.2904 18.9836 18.9622 18.9836 17.4648ZM42.0688 25.9414V9.86719H47.6938V31H42.4008L42.0688 25.9414ZM42.6938 21.6055L44.3539 21.5664C44.3539 22.9727 44.1911 24.2812 43.8656 25.4922C43.5401 26.6901 43.0518 27.7318 42.4008 28.6172C41.7497 29.4896 40.9294 30.1732 39.9398 30.668C38.9503 31.1497 37.7849 31.3906 36.4438 31.3906C35.4151 31.3906 34.4646 31.2474 33.5922 30.9609C32.7328 30.6615 31.9906 30.1992 31.3656 29.5742C30.7536 28.9362 30.2719 28.1224 29.9203 27.1328C29.5818 26.1302 29.4125 24.9258 29.4125 23.5195V9.86719H35.0375V23.5586C35.0375 24.1836 35.1091 24.7109 35.2523 25.1406C35.4086 25.5703 35.6234 25.9219 35.8969 26.1953C36.1703 26.4688 36.4893 26.6641 36.8539 26.7812C37.2315 26.8984 37.6482 26.957 38.1039 26.957C39.2628 26.957 40.1742 26.7227 40.8383 26.2539C41.5154 25.7852 41.9906 25.1471 42.2641 24.3398C42.5505 23.5195 42.6938 22.6081 42.6938 21.6055ZM58.4156 14.4766V31H52.7906V9.86719H58.0836L58.4156 14.4766ZM64.7828 9.73047L64.6852 14.9453C64.4117 14.9062 64.0797 14.8737 63.6891 14.8477C63.3115 14.8086 62.9664 14.7891 62.6539 14.7891C61.8596 14.7891 61.1695 14.8932 60.5836 15.1016C60.0107 15.2969 59.5289 15.5898 59.1383 15.9805C58.7607 16.3711 58.4742 16.8464 58.2789 17.4062C58.0966 17.9661 57.9924 18.6042 57.9664 19.3203L56.8336 18.9688C56.8336 17.6016 56.9703 16.3451 57.2438 15.1992C57.5172 14.0404 57.9143 13.0312 58.4352 12.1719C58.969 11.3125 59.6201 10.6484 60.3883 10.1797C61.1565 9.71094 62.0354 9.47656 63.025 9.47656C63.3375 9.47656 63.6565 9.5026 63.982 9.55469C64.3076 9.59375 64.5745 9.65234 64.7828 9.73047ZM86.168 31H80.5039V7.99219C80.5039 6.39062 80.8164 5.04297 81.4414 3.94922C82.0794 2.84245 82.9714 2.00911 84.1172 1.44922C85.276 0.876302 86.6497 0.589844 88.2383 0.589844C88.7591 0.589844 89.2604 0.628906 89.7422 0.707031C90.224 0.772135 90.6927 0.856771 91.1484 0.960938L91.0898 5.19922C90.8424 5.13411 90.582 5.08854 90.3086 5.0625C90.0352 5.03646 89.7161 5.02344 89.3516 5.02344C88.6745 5.02344 88.0951 5.14062 87.6133 5.375C87.1445 5.59635 86.7865 5.92839 86.5391 6.37109C86.2917 6.8138 86.168 7.35417 86.168 7.99219V31ZM90.3867 9.86719V13.8516H77.3594V9.86719H90.3867ZM93.2375 20.6484V20.2383C93.2375 18.6888 93.4589 17.263 93.9016 15.9609C94.3443 14.6458 94.9888 13.5065 95.8352 12.543C96.6815 11.5794 97.7232 10.8307 98.9602 10.2969C100.197 9.75 101.616 9.47656 103.218 9.47656C104.82 9.47656 106.245 9.75 107.495 10.2969C108.745 10.8307 109.793 11.5794 110.64 12.543C111.499 13.5065 112.15 14.6458 112.593 15.9609C113.036 17.263 113.257 18.6888 113.257 20.2383V20.6484C113.257 22.1849 113.036 23.6107 112.593 24.9258C112.15 26.2279 111.499 27.3672 110.64 28.3438C109.793 29.3073 108.752 30.056 107.515 30.5898C106.278 31.1237 104.859 31.3906 103.257 31.3906C101.655 31.3906 100.23 31.1237 98.9797 30.5898C97.7427 30.056 96.6945 29.3073 95.8352 28.3438C94.9888 27.3672 94.3443 26.2279 93.9016 24.9258C93.4589 23.6107 93.2375 22.1849 93.2375 20.6484ZM98.8625 20.2383V20.6484C98.8625 21.5339 98.9406 22.3607 99.0969 23.1289C99.2531 23.8971 99.5005 24.5742 99.8391 25.1602C100.191 25.7331 100.646 26.1823 101.206 26.5078C101.766 26.8333 102.45 26.9961 103.257 26.9961C104.038 26.9961 104.709 26.8333 105.269 26.5078C105.829 26.1823 106.278 25.7331 106.616 25.1602C106.955 24.5742 107.202 23.8971 107.359 23.1289C107.528 22.3607 107.613 21.5339 107.613 20.6484V20.2383C107.613 19.3789 107.528 18.5716 107.359 17.8164C107.202 17.0482 106.948 16.3711 106.597 15.7852C106.258 15.1862 105.809 14.7174 105.249 14.3789C104.689 14.0404 104.012 13.8711 103.218 13.8711C102.424 13.8711 101.747 14.0404 101.187 14.3789C100.64 14.7174 100.191 15.1862 99.8391 15.7852C99.5005 16.3711 99.2531 17.0482 99.0969 17.8164C98.9406 18.5716 98.8625 19.3789 98.8625 20.2383ZM121.616 9.86719L125.112 16.293L128.705 9.86719H134.702L128.725 20.1992L134.975 31H128.959L125.151 24.2031L121.342 31H115.327L121.577 20.1992L115.6 9.86719H121.616Z" fill="black"/>
<path d="M147.963 31.3906C146.322 31.3906 144.851 31.1302 143.548 30.6094C142.246 30.0755 141.14 29.3398 140.228 28.4023C139.33 27.4648 138.64 26.3776 138.158 25.1406C137.676 23.8906 137.435 22.5625 137.435 21.1562V20.375C137.435 18.7734 137.663 17.3086 138.119 15.9805C138.574 14.6523 139.226 13.5 140.072 12.5234C140.931 11.5469 141.973 10.7982 143.197 10.2773C144.421 9.74349 145.801 9.47656 147.338 9.47656C148.835 9.47656 150.163 9.72396 151.322 10.2188C152.481 10.7135 153.451 11.4167 154.232 12.3281C155.026 13.2396 155.625 14.3333 156.029 15.6094C156.433 16.8724 156.634 18.2786 156.634 19.8281V22.1719H139.838V18.4219H151.107V17.9922C151.107 17.2109 150.964 16.5143 150.677 15.9023C150.404 15.2773 149.987 14.7826 149.427 14.418C148.867 14.0534 148.151 13.8711 147.279 13.8711C146.537 13.8711 145.899 14.0339 145.365 14.3594C144.831 14.6849 144.395 15.1406 144.056 15.7266C143.731 16.3125 143.483 17.0026 143.314 17.7969C143.158 18.5781 143.08 19.4375 143.08 20.375V21.1562C143.08 22.0026 143.197 22.7839 143.431 23.5C143.679 24.2161 144.024 24.8346 144.466 25.3555C144.922 25.8763 145.469 26.2799 146.107 26.5664C146.758 26.8529 147.494 26.9961 148.314 26.9961C149.33 26.9961 150.274 26.8008 151.146 26.4102C152.032 26.0065 152.793 25.401 153.431 24.5938L156.166 27.5625C155.723 28.2005 155.117 28.8125 154.349 29.3984C153.594 29.9844 152.683 30.4661 151.615 30.8438C150.547 31.2083 149.33 31.3906 147.963 31.3906ZM172.063 25.1602C172.063 24.7565 171.946 24.3919 171.712 24.0664C171.477 23.7409 171.041 23.4414 170.403 23.168C169.778 22.8815 168.873 22.6211 167.688 22.3867C166.621 22.1523 165.624 21.8594 164.7 21.5078C163.789 21.1432 162.994 20.707 162.317 20.1992C161.653 19.6914 161.132 19.0924 160.755 18.4023C160.377 17.6992 160.188 16.8984 160.188 16C160.188 15.1146 160.377 14.2812 160.755 13.5C161.145 12.7188 161.699 12.0286 162.415 11.4297C163.144 10.8177 164.029 10.3424 165.071 10.0039C166.126 9.65234 167.311 9.47656 168.626 9.47656C170.462 9.47656 172.037 9.76953 173.352 10.3555C174.68 10.9414 175.696 11.7487 176.399 12.7773C177.115 13.793 177.473 14.9518 177.473 16.2539H171.848C171.848 15.707 171.731 15.2188 171.497 14.7891C171.276 14.3464 170.924 14.0013 170.442 13.7539C169.973 13.4935 169.361 13.3633 168.606 13.3633C167.981 13.3633 167.441 13.474 166.985 13.6953C166.529 13.9036 166.178 14.1901 165.93 14.5547C165.696 14.9062 165.579 15.2969 165.579 15.7266C165.579 16.0521 165.644 16.3451 165.774 16.6055C165.917 16.8529 166.145 17.0807 166.458 17.2891C166.77 17.4974 167.174 17.6927 167.669 17.875C168.177 18.0443 168.802 18.2005 169.544 18.3438C171.067 18.6562 172.428 19.0664 173.626 19.5742C174.824 20.069 175.774 20.7461 176.477 21.6055C177.18 22.4518 177.532 23.5651 177.532 24.9453C177.532 25.8828 177.324 26.7422 176.907 27.5234C176.49 28.3047 175.891 28.9883 175.11 29.5742C174.329 30.1471 173.391 30.5964 172.298 30.9219C171.217 31.2344 169.999 31.3906 168.645 31.3906C166.679 31.3906 165.012 31.0391 163.645 30.3359C162.291 29.6328 161.262 28.7409 160.559 27.6602C159.869 26.5664 159.524 25.4466 159.524 24.3008H164.856C164.882 25.069 165.078 25.6875 165.442 26.1562C165.82 26.625 166.295 26.9635 166.868 27.1719C167.454 27.3802 168.085 27.4844 168.762 27.4844C169.492 27.4844 170.097 27.3867 170.579 27.1914C171.061 26.9831 171.425 26.7096 171.673 26.3711C171.933 26.0195 172.063 25.6159 172.063 25.1602Z" fill="white"/>
</svg>
