<svg width="89" height="12" viewBox="0 0 89 12" fill="none" xmlns="http://www.w3.org/2000/svg">
<path d="M0.950195 1.04688H4.56641C5.32292 1.04688 5.97233 1.16081 6.51465 1.38867C7.05697 1.61654 7.47396 1.95378 7.76562 2.40039C8.05729 2.84701 8.20312 3.39616 8.20312 4.04785C8.20312 4.56283 8.11198 5.00944 7.92969 5.3877C7.7474 5.76595 7.48991 6.08268 7.15723 6.33789C6.8291 6.5931 6.44173 6.79362 5.99512 6.93945L5.40723 7.24023H2.21484L2.20117 5.75684H4.58691C4.97428 5.75684 5.29557 5.68848 5.55078 5.55176C5.80599 5.41504 5.9974 5.22591 6.125 4.98438C6.25716 4.74284 6.32324 4.46712 6.32324 4.15723C6.32324 3.82454 6.25944 3.53743 6.13184 3.2959C6.00423 3.0498 5.81055 2.86068 5.55078 2.72852C5.29102 2.59635 4.96289 2.53027 4.56641 2.53027H2.83008V11H0.950195V1.04688ZM6.56934 11L4.26562 6.54297L6.25488 6.53613L8.58594 10.9043V11H6.56934ZM13.3161 11.1367C12.7556 11.1367 12.252 11.0456 11.8054 10.8633C11.3588 10.681 10.9782 10.4281 10.6638 10.1045C10.3539 9.77637 10.1146 9.39583 9.94602 8.96289C9.78195 8.52539 9.69992 8.05599 9.69992 7.55469V7.28125C9.69992 6.71159 9.78195 6.19434 9.94602 5.72949C10.1101 5.26009 10.3425 4.85677 10.6433 4.51953C10.9441 4.18229 11.3041 3.92253 11.7234 3.74023C12.1426 3.55794 12.6052 3.4668 13.1111 3.4668C13.6351 3.4668 14.0977 3.55566 14.4987 3.7334C14.8998 3.90658 15.2348 4.15267 15.5036 4.47168C15.7725 4.79069 15.9753 5.1735 16.112 5.62012C16.2487 6.06217 16.3171 6.55208 16.3171 7.08984V7.84863H10.5202V6.60449H14.5398V6.46777C14.5307 6.18066 14.476 5.91862 14.3757 5.68164C14.2754 5.4401 14.1205 5.2487 13.9109 5.10742C13.7012 4.96159 13.4301 4.88867 13.0974 4.88867C12.8285 4.88867 12.5938 4.94792 12.3933 5.06641C12.1973 5.18034 12.0333 5.3444 11.9011 5.55859C11.7735 5.76823 11.6778 6.01888 11.614 6.31055C11.5502 6.60221 11.5183 6.92578 11.5183 7.28125V7.55469C11.5183 7.86458 11.5593 8.15169 11.6413 8.41602C11.7279 8.68034 11.8532 8.91048 12.0173 9.10645C12.1859 9.29785 12.3864 9.44824 12.6189 9.55762C12.8558 9.66243 13.1247 9.71484 13.4255 9.71484C13.8038 9.71484 14.1456 9.64193 14.4509 9.49609C14.7608 9.3457 15.0297 9.12467 15.2575 8.83301L16.1667 9.77637C16.0118 10.0042 15.8021 10.223 15.5378 10.4326C15.278 10.6423 14.9636 10.8132 14.5945 10.9453C14.2253 11.0729 13.7992 11.1367 13.3161 11.1367ZM21.8813 9.42773V6.0166C21.8813 5.76595 21.838 5.54948 21.7514 5.36719C21.6648 5.1849 21.5327 5.04362 21.3549 4.94336C21.1772 4.8431 20.9516 4.79297 20.6782 4.79297C20.4366 4.79297 20.2247 4.83398 20.0424 4.91602C19.8647 4.99805 19.728 5.11426 19.6323 5.26465C19.5366 5.41048 19.4887 5.5791 19.4887 5.77051H17.6772C17.6772 5.46517 17.7501 5.17578 17.8959 4.90234C18.0418 4.62435 18.2491 4.37826 18.518 4.16406C18.7914 3.94531 19.1173 3.77441 19.4955 3.65137C19.8784 3.52832 20.3067 3.4668 20.7807 3.4668C21.3412 3.4668 21.8403 3.5625 22.2778 3.75391C22.7198 3.94076 23.0662 4.22331 23.3168 4.60156C23.572 4.97982 23.6996 5.45605 23.6996 6.03027V9.25684C23.6996 9.62598 23.7224 9.94271 23.768 10.207C23.8181 10.4668 23.8911 10.6924 23.9868 10.8838V11H22.1479C22.0613 10.8132 21.9952 10.5762 21.9496 10.2891C21.9041 9.9974 21.8813 9.71029 21.8813 9.42773ZM22.1342 6.49512L22.1479 7.56836H21.0063C20.7237 7.56836 20.4754 7.59798 20.2612 7.65723C20.047 7.71191 19.8715 7.79395 19.7348 7.90332C19.5981 8.00814 19.4955 8.13574 19.4272 8.28613C19.3588 8.43197 19.3246 8.59831 19.3246 8.78516C19.3246 8.96745 19.3657 9.13151 19.4477 9.27734C19.5343 9.42318 19.6573 9.53939 19.8168 9.62598C19.9809 9.70801 20.1723 9.74902 20.3911 9.74902C20.7101 9.74902 20.9881 9.68522 21.225 9.55762C21.462 9.42546 21.6466 9.26595 21.7787 9.0791C21.9109 8.89225 21.9815 8.71452 21.9907 8.5459L22.5102 9.3252C22.4464 9.51204 22.3507 9.71029 22.2231 9.91992C22.0955 10.1296 21.9314 10.3255 21.7309 10.5078C21.5304 10.6901 21.2888 10.8405 21.0063 10.959C20.7237 11.0775 20.3956 11.1367 20.0219 11.1367C19.5434 11.1367 19.115 11.041 18.7368 10.8496C18.3585 10.6582 18.06 10.3962 17.8412 10.0635C17.6225 9.73079 17.5131 9.35254 17.5131 8.92871C17.5131 8.53678 17.586 8.19043 17.7319 7.88965C17.8777 7.58887 18.0942 7.33594 18.3813 7.13086C18.6684 6.92122 19.0239 6.764 19.4477 6.65918C19.8761 6.5498 20.366 6.49512 20.9174 6.49512H22.1342ZM30.0431 9.42773V0.5H31.8615V11H30.2209L30.0431 9.42773ZM25.2921 7.39062V7.24707C25.2921 6.68197 25.356 6.16927 25.4836 5.70898C25.6157 5.24414 25.8071 4.84538 26.0578 4.5127C26.3084 4.18001 26.6115 3.92253 26.967 3.74023C27.327 3.55794 27.7349 3.4668 28.1906 3.4668C28.6326 3.4668 29.0177 3.55566 29.3459 3.7334C29.6785 3.91113 29.9611 4.16406 30.1935 4.49219C30.4305 4.82031 30.6196 5.20996 30.7609 5.66113C30.9022 6.10775 31.0047 6.59993 31.0685 7.1377V7.52734C31.0047 8.05143 30.9022 8.53223 30.7609 8.96973C30.6196 9.40723 30.4305 9.79004 30.1935 10.1182C29.9611 10.4417 29.6785 10.6924 29.3459 10.8701C29.0132 11.0479 28.6235 11.1367 28.1769 11.1367C27.7257 11.1367 27.3201 11.0433 26.9601 10.8564C26.6046 10.6696 26.3016 10.4076 26.0509 10.0703C25.8048 9.73307 25.6157 9.33659 25.4836 8.88086C25.356 8.42513 25.2921 7.92839 25.2921 7.39062ZM27.1037 7.24707V7.39062C27.1037 7.70964 27.131 8.00814 27.1857 8.28613C27.2404 8.56413 27.3293 8.81022 27.4523 9.02441C27.5754 9.23405 27.7326 9.39811 27.924 9.5166C28.1199 9.63509 28.3569 9.69434 28.6349 9.69434C28.9904 9.69434 29.2821 9.61686 29.5099 9.46191C29.7423 9.30241 29.9224 9.08594 30.05 8.8125C30.1776 8.53451 30.2596 8.22233 30.2961 7.87598V6.80273C30.2778 6.5293 30.23 6.27637 30.1525 6.04395C30.0796 5.81152 29.9748 5.611 29.838 5.44238C29.7059 5.27376 29.5418 5.1416 29.3459 5.0459C29.1499 4.9502 28.9175 4.90234 28.6486 4.90234C28.3706 4.90234 28.1336 4.96387 27.9377 5.08691C27.7417 5.2054 27.5822 5.37174 27.4591 5.58594C27.3361 5.80013 27.2449 6.0485 27.1857 6.33105C27.131 6.61361 27.1037 6.91895 27.1037 7.24707ZM39.3395 5.12109V11H37.5348V3.60352H39.2369L39.3395 5.12109ZM39.0729 7.03516H38.5191C38.5191 6.52018 38.5807 6.04622 38.7037 5.61328C38.8313 5.18034 39.0182 4.80436 39.2643 4.48535C39.5104 4.16178 39.8134 3.91113 40.1734 3.7334C40.538 3.55566 40.9596 3.4668 41.4381 3.4668C41.7708 3.4668 42.0761 3.51693 42.3541 3.61719C42.6321 3.71289 42.8714 3.86556 43.0719 4.0752C43.277 4.28027 43.4342 4.54915 43.5436 4.88184C43.6529 5.20996 43.7076 5.60417 43.7076 6.06445V11H41.9029V6.24902C41.9029 5.90267 41.8528 5.63151 41.7525 5.43555C41.6568 5.23958 41.5178 5.10286 41.3355 5.02539C41.1533 4.94336 40.9345 4.90234 40.6793 4.90234C40.3967 4.90234 40.1529 4.95931 39.9479 5.07324C39.7473 5.18262 39.581 5.33529 39.4488 5.53125C39.3212 5.72721 39.2255 5.9528 39.1617 6.20801C39.1025 6.46322 39.0729 6.73893 39.0729 7.03516ZM43.5709 6.7002L42.8258 6.83691C42.8303 6.37207 42.8941 5.93685 43.0172 5.53125C43.1402 5.12109 43.3202 4.76335 43.5572 4.45801C43.7988 4.14811 44.0973 3.90658 44.4527 3.7334C44.8128 3.55566 45.2275 3.4668 45.6969 3.4668C46.0615 3.4668 46.3896 3.51921 46.6813 3.62402C46.9775 3.72428 47.2304 3.88607 47.44 4.10938C47.6497 4.32812 47.8092 4.61296 47.9186 4.96387C48.0325 5.31478 48.0895 5.74316 48.0895 6.24902V11H46.2711V6.24219C46.2711 5.88216 46.221 5.60645 46.1207 5.41504C46.025 5.22363 45.886 5.09147 45.7037 5.01855C45.5214 4.94108 45.3072 4.90234 45.0611 4.90234C44.8105 4.90234 44.5917 4.9502 44.4049 5.0459C44.2226 5.13704 44.0676 5.26465 43.94 5.42871C43.817 5.59277 43.7236 5.78418 43.6598 6.00293C43.6005 6.21712 43.5709 6.44954 43.5709 6.7002ZM49.6683 7.37695V7.2334C49.6683 6.69108 49.7458 6.19206 49.9007 5.73633C50.0557 5.27604 50.2812 4.87728 50.5775 4.54004C50.8737 4.2028 51.236 3.94076 51.6644 3.75391C52.0928 3.5625 52.5804 3.4668 53.1273 3.4668C53.6833 3.4668 54.1754 3.5625 54.6038 3.75391C55.0368 3.94076 55.4014 4.2028 55.6976 4.54004C55.9938 4.87728 56.2194 5.27604 56.3743 5.73633C56.5293 6.19206 56.6068 6.69108 56.6068 7.2334V7.37695C56.6068 7.91471 56.5293 8.41374 56.3743 8.87402C56.2194 9.32975 55.9938 9.72852 55.6976 10.0703C55.4014 10.4076 55.039 10.6696 54.6107 10.8564C54.1823 11.0433 53.6924 11.1367 53.1409 11.1367C52.5941 11.1367 52.1042 11.0433 51.6712 10.8564C51.2383 10.6696 50.8737 10.4076 50.5775 10.0703C50.2812 9.72852 50.0557 9.32975 49.9007 8.87402C49.7458 8.41374 49.6683 7.91471 49.6683 7.37695ZM51.473 7.2334V7.37695C51.473 7.70052 51.5049 8.00358 51.5687 8.28613C51.6325 8.56868 51.7305 8.81706 51.8626 9.03125C51.9948 9.24544 52.1657 9.41406 52.3753 9.53711C52.5895 9.6556 52.8447 9.71484 53.1409 9.71484C53.4326 9.71484 53.6833 9.6556 53.8929 9.53711C54.1025 9.41406 54.2734 9.24544 54.4056 9.03125C54.5423 8.81706 54.6426 8.56868 54.7064 8.28613C54.7702 8.00358 54.8021 7.70052 54.8021 7.37695V7.2334C54.8021 6.91439 54.7702 6.61589 54.7064 6.33789C54.6426 6.05534 54.5423 5.80697 54.4056 5.59277C54.2734 5.37402 54.1002 5.20312 53.8861 5.08008C53.6764 4.95247 53.4235 4.88867 53.1273 4.88867C52.8356 4.88867 52.5849 4.95247 52.3753 5.08008C52.1657 5.20312 51.9948 5.37402 51.8626 5.59277C51.7305 5.80697 51.6325 6.05534 51.5687 6.33789C51.5049 6.61589 51.473 6.91439 51.473 7.2334ZM60.0039 5.11426V11H58.1993V3.60352H59.9082L60.0039 5.11426ZM62.253 3.55566L62.2256 5.2373C62.1254 5.21908 62.0114 5.2054 61.8838 5.19629C61.7608 5.18717 61.6446 5.18262 61.5352 5.18262C61.2572 5.18262 61.0134 5.22135 60.8037 5.29883C60.5941 5.37174 60.4187 5.47884 60.2774 5.62012C60.1407 5.76139 60.0358 5.93457 59.9629 6.13965C59.89 6.34017 59.849 6.56803 59.8399 6.82324L59.4502 6.77539C59.4502 6.30599 59.4981 5.87077 59.5938 5.46973C59.6895 5.06868 59.8285 4.71777 60.0108 4.41699C60.1931 4.11621 60.4209 3.88379 60.6944 3.71973C60.9724 3.55111 61.2914 3.4668 61.6514 3.4668C61.7517 3.4668 61.8588 3.47591 61.9727 3.49414C62.0912 3.50781 62.1846 3.52832 62.253 3.55566ZM66.7097 11.1367C66.1492 11.1367 65.6456 11.0456 65.199 10.8633C64.7524 10.681 64.3718 10.4281 64.0574 10.1045C63.7475 9.77637 63.5082 9.39583 63.3396 8.96289C63.1755 8.52539 63.0935 8.05599 63.0935 7.55469V7.28125C63.0935 6.71159 63.1755 6.19434 63.3396 5.72949C63.5037 5.26009 63.7361 4.85677 64.0369 4.51953C64.3377 4.18229 64.6977 3.92253 65.117 3.74023C65.5362 3.55794 65.9988 3.4668 66.5047 3.4668C67.0287 3.4668 67.4913 3.55566 67.8923 3.7334C68.2934 3.90658 68.6283 4.15267 68.8972 4.47168C69.1661 4.79069 69.3689 5.1735 69.5056 5.62012C69.6423 6.06217 69.7107 6.55208 69.7107 7.08984V7.84863H63.9138V6.60449H67.9334V6.46777C67.9242 6.18066 67.8696 5.91862 67.7693 5.68164C67.669 5.4401 67.5141 5.2487 67.3045 5.10742C67.0948 4.96159 66.8237 4.88867 66.491 4.88867C66.2221 4.88867 65.9874 4.94792 65.7869 5.06641C65.5909 5.18034 65.4269 5.3444 65.2947 5.55859C65.1671 5.76823 65.0714 6.01888 65.0076 6.31055C64.9438 6.60221 64.9119 6.92578 64.9119 7.28125V7.55469C64.9119 7.86458 64.9529 8.15169 65.0349 8.41602C65.1215 8.68034 65.2468 8.91048 65.4109 9.10645C65.5795 9.29785 65.78 9.44824 66.0125 9.55762C66.2494 9.66243 66.5183 9.71484 66.8191 9.71484C67.1974 9.71484 67.5392 9.64193 67.8445 9.49609C68.1544 9.3457 68.4233 9.12467 68.6511 8.83301L69.5603 9.77637C69.4054 10.0042 69.1957 10.223 68.9314 10.4326C68.6716 10.6423 68.3572 10.8132 67.988 10.9453C67.6189 11.0729 67.1928 11.1367 66.7097 11.1367ZM79.4855 6.82324L74.9875 5.18945V3.4668L80.9211 5.98926V7.19238L79.4855 6.82324ZM74.9875 8.22461L79.4924 6.54297L80.9211 6.22168V7.41797L74.9875 9.94043V8.22461ZM87.0253 6.82324L82.5273 5.18945V3.4668L88.4609 5.98926V7.19238L87.0253 6.82324ZM82.5273 8.22461L87.0322 6.54297L88.4609 6.22168V7.41797L82.5273 9.94043V8.22461Z" fill="#FF3D00"/>
</svg>
